<?xml version="1.0" standalone="no"?>
<!DOCTYPE svg PUBLIC "-//W3C//DTD SVG 20010904//EN"
 "http://www.w3.org/TR/2001/REC-SVG-20010904/DTD/svg10.dtd">
<svg version="1.0" xmlns="http://www.w3.org/2000/svg"
 width="1280.000000pt" height="1278.000000pt" viewBox="0 0 1280.000000 1278.000000"
 preserveAspectRatio="xMidYMid meet">
<g transform="translate(0.000000,1278.000000) scale(0.100000,-0.100000)"
fill="#000000" stroke="none">
<path d="M6620 12769 c-52 -5 -196 -16 -320 -24 -513 -37 -1091 -130 -1579
-256 -1397 -361 -3288 -1267 -4102 -1966 -155 -134 -480 -480 -556 -593 -36
-55 -63 -108 -63 -127 0 -26 50 -112 85 -148 78 -77 165 -103 400 -115 99 -6
224 -17 278 -25 468 -70 1025 -293 1375 -552 76 -56 140 -117 296 -282 105
-111 153 -134 294 -139 60 -3 122 1 150 8 89 22 207 87 422 231 222 149 465
280 870 469 515 241 810 344 1241 435 385 80 676 109 1089 110 482 0 843 -47
1275 -164 585 -158 1191 -452 1595 -772 136 -107 445 -415 548 -546 383 -486
588 -950 610 -1383 18 -349 -20 -418 -303 -556 -82 -40 -213 -98 -290 -129
-282 -114 -515 -241 -542 -296 -52 -106 -78 -774 -70 -1799 7 -883 15 -1010
88 -1390 202 -1041 605 -1863 1119 -2284 78 -64 436 -306 453 -306 5 0 64 43
131 96 261 208 267 220 240 476 -24 232 -7 568 57 1078 61 493 139 906 264
1409 116 466 151 566 390 1096 309 686 470 1157 584 1707 111 538 171 1191
143 1553 -6 77 -16 243 -22 368 -19 384 -56 575 -192 986 -450 1364 -928 2049
-1908 2735 -606 425 -1187 676 -2081 902 -378 95 -708 147 -1104 174 -88 6
-212 15 -277 20 -134 12 -450 11 -588 -1z"/>
<path d="M6070 9409 c-679 -53 -1183 -192 -1790 -496 -508 -253 -874 -536
-1032 -795 -126 -207 -102 -368 88 -592 112 -131 251 -219 348 -219 94 1 319
103 686 313 653 373 1027 511 1570 581 130 16 801 23 966 10 391 -33 655 -101
944 -245 306 -153 555 -330 775 -551 218 -219 369 -444 509 -759 123 -275 154
-298 331 -238 129 43 455 189 552 247 98 58 163 117 163 148 0 110 -187 636
-311 877 -239 463 -846 984 -1544 1325 -456 223 -807 327 -1285 381 -170 19
-788 28 -970 13z"/>
<path d="M6205 7760 c-163 -12 -378 -35 -565 -61 -459 -65 -1139 -408 -1635
-824 -337 -282 -516 -487 -1095 -1250 -611 -805 -877 -1122 -1257 -1495 -291
-287 -301 -308 -290 -655 12 -403 75 -503 323 -513 118 -5 183 10 283 65 247
134 489 422 831 988 214 354 326 522 477 713 325 410 636 623 1023 701 350 70
732 48 1007 -58 177 -69 360 -217 468 -380 184 -280 144 -624 -103 -883 -166
-174 -380 -267 -616 -269 -136 -1 -269 36 -554 158 -284 120 -435 158 -637
157 -237 -1 -369 -63 -523 -246 -228 -271 -491 -706 -787 -1303 -200 -404
-318 -667 -490 -1095 -239 -594 -306 -795 -308 -925 -2 -129 45 -188 265 -324
288 -180 379 -204 913 -237 514 -32 592 -31 1030 12 531 52 966 198 1365 458
277 181 712 586 847 788 25 38 56 76 69 85 42 27 162 12 404 -50 118 -31 285
-74 370 -96 687 -176 1347 -255 1727 -206 147 19 213 38 253 71 43 37 45 42
96 246 l46 183 -6 175 c-8 242 -45 560 -102 858 -38 205 -71 320 -114 397 -22
39 -46 98 -55 130 -22 86 -19 274 9 606 90 1038 100 1615 36 2003 -51 303
-248 751 -478 1081 -300 431 -743 796 -1102 905 -219 66 -398 89 -735 95 -143
2 -318 0 -390 -5z"/>
</g>
</svg>
